<?xml version="1.0" standalone="yes"?>

<svg version="1.1" viewBox="0.0 0.0 1178.0 719.0" fill="none" stroke="none" stroke-linecap="square" stroke-miterlimit="10" xmlns="http://www.w3.org/2000/svg" xmlns:xlink="http://www.w3.org/1999/xlink"><clipPath id="p.0"><path d="m0 0l1178.0 0l0 719.0l-1178.0 0l0 -719.0z" clip-rule="nonzero"></path></clipPath><g clip-path="url(#p.0)"><path fill="#000000" fill-opacity="0.0" d="m0 0l1178.7664 0l0 719.28345l-1178.7664 0z" fill-rule="nonzero"></path><path fill="#7acc72" d="m1050.3113 434.33875l0 0c0 -6.4360046 5.217407 -11.653442 11.653442 -11.653442l46.612427 0l0 0c3.0905762 0 6.0546875 1.2277832 8.240234 3.413208c2.1854248 2.1854553 3.413208 5.1495667 3.413208 8.240234l0 57.936615c0 6.436035 -5.2175293 11.653473 -11.653442 11.653473l-46.612427 0c-6.436035 0 -11.653442 -5.2174377 -11.653442 -11.653473z" fill-rule="nonzero"></path><path stroke="#ffffff" stroke-width="8.0" stroke-linejoin="round" stroke-linecap="butt" d="m1050.3113 434.33875l0 0c0 -6.4360046 5.217407 -11.653442 11.653442 -11.653442l46.612427 0l0 0c3.0905762 0 6.0546875 1.2277832 8.240234 3.413208c2.1854248 2.1854553 3.413208 5.1495667 3.413208 8.240234l0 57.936615c0 6.436035 -5.2175293 11.653473 -11.653442 11.653473l-46.612427 0c-6.436035 0 -11.653442 -5.2174377 -11.653442 -11.653473z" fill-rule="nonzero"></path><path fill="#ffffff" d="m1060.1628 437.8572l0 0c0 -0.39138794 0.3173828 -0.7086792 0.70874023 -0.7086792l2.8345947 0l0 0c0.18798828 0 0.36828613 0.074645996 0.50109863 0.20755005c0.13293457 0.13290405 0.2076416 0.3131714 0.2076416 0.50112915l0 74.554535c0 0.39141846 -0.31726074 0.7086792 -0.70874023 0.7086792l-2.8345947 0c-0.39135742 0 -0.70874023 -0.31726074 -0.70874023 -0.7086792z" fill-rule="nonzero"></path><path fill="#ffffff" d="m1105.5463 438.6183l0 0c0 -0.39138794 0.31726074 -0.7086792 0.70874023 -0.7086792l2.8345947 0l0 0c0.18798828 0 0.36816406 0.07467651 0.50109863 0.20758057c0.13293457 0.13290405 0.2076416 0.31314087 0.2076416 0.50109863l0 73.03598c0 0.39138794 -0.3173828 0.7087097 -0.70874023 0.7087097l-2.8345947 0c-0.3914795 0 -0.70874023 -0.31732178 -0.70874023 -0.7087097z" fill-rule="nonzero"></path><path fill="#000000" fill-opacity="0.0" d="m1074.4027 495.82794l-10.304565 74.56177" fill-rule="nonzero"></path><path stroke="#7acc72" stroke-width="16.0" stroke-linejoin="round" stroke-linecap="butt" d="m1074.4027 495.82794l-10.304565 74.56177" fill-rule="nonzero"></path><path fill="#000000" fill-opacity="0.0" d="m1094.3839 495.61255l13.059692 77.729126" fill-rule="nonzero"></path><path stroke="#7acc72" stroke-width="16.0" stroke-linejoin="round" stroke-linecap="butt" d="m1094.3839 495.61255l13.059692 77.729126" fill-rule="nonzero"></path><path fill="#000000" fill-opacity="0.0" d="m1064.4143 397.74255l0 0c0 -11.813477 9.207642 -21.390167 20.565796 -21.390167l0 0c5.4543457 0 10.685303 2.253601 14.542236 6.265045c3.8568115 4.0114136 6.0235596 9.452087 6.0235596 15.125122l0 0c0 11.813446 -9.207642 21.390137 -20.565796 21.390137l0 0c-11.358154 0 -20.565796 -9.576691 -20.565796 -21.390137z" fill-rule="nonzero"></path><path stroke="#7acc72" stroke-width="8.0" stroke-linejoin="round" stroke-linecap="butt" d="m1064.4143 397.74255l0 0c0 -11.813477 9.207642 -21.390167 20.565796 -21.390167l0 0c5.4543457 0 10.685303 2.253601 14.542236 6.265045c3.8568115 4.0114136 6.0235596 9.452087 6.0235596 15.125122l0 0c0 11.813446 -9.207642 21.390137 -20.565796 21.390137l0 0c-11.358154 0 -20.565796 -9.576691 -20.565796 -21.390137z" fill-rule="nonzero"></path><path fill="#9fc5e8" d="m987.136 453.3062l0 0c0 -6.4360046 5.2174683 -11.653442 11.653442 -11.653442l46.612427 0l0 0c3.0906982 0 6.0548096 1.2277527 8.240234 3.413208c2.1854248 2.1854553 3.413208 5.149536 3.413208 8.240234l0 57.936615c0 6.4360046 -5.217407 11.653473 -11.653442 11.653473l-46.612427 0c-6.435974 0 -11.653442 -5.2174683 -11.653442 -11.653473z" fill-rule="nonzero"></path><path stroke="#ffffff" stroke-width="8.0" stroke-linejoin="round" stroke-linecap="butt" d="m987.136 453.3062l0 0c0 -6.4360046 5.2174683 -11.653442 11.653442 -11.653442l46.612427 0l0 0c3.0906982 0 6.0548096 1.2277527 8.240234 3.413208c2.1854248 2.1854553 3.413208 5.149536 3.413208 8.240234l0 57.936615c0 6.4360046 -5.217407 11.653473 -11.653442 11.653473l-46.612427 0c-6.435974 0 -11.653442 -5.2174683 -11.653442 -11.653473z" fill-rule="nonzero"></path><path fill="#ffffff" d="m996.9877 456.82468l0 0c0 -0.39141846 0.31726074 -0.7086792 0.7086792 -0.7086792l2.8346558 0l0 0c0.18792725 0 0.36816406 0.074645996 0.50109863 0.20755005c0.13287354 0.13290405 0.20758057 0.3131714 0.20758057 0.50112915l0 74.554535c0 0.39141846 -0.31732178 0.7086792 -0.7086792 0.7086792l-2.8346558 0c-0.39141846 0 -0.7086792 -0.31726074 -0.7086792 -0.7086792z" fill-rule="nonzero"></path><path stroke="#9fc5e8" stroke-width="1.0" stroke-linejoin="round" stroke-linecap="butt" d="m996.9877 456.82468l0 0c0 -0.39141846 0.31726074 -0.7086792 0.7086792 -0.7086792l2.8346558 0l0 0c0.18792725 0 0.36816406 0.074645996 0.50109863 0.20755005c0.13287354 0.13290405 0.20758057 0.3131714 0.20758057 0.50112915l0 74.554535c0 0.39141846 -0.31732178 0.7086792 -0.7086792 0.7086792l-2.8346558 0c-0.39141846 0 -0.7086792 -0.31726074 -0.7086792 -0.7086792z" fill-rule="nonzero"></path><path fill="#ffffff" d="m1042.3711 457.58575l0 0c0 -0.39138794 0.31726074 -0.7086792 0.70861816 -0.7086792l2.8347168 0l0 0c0.18786621 0 0.36816406 0.07467651 0.50109863 0.20758057c0.13293457 0.13290405 0.20751953 0.31314087 0.20751953 0.50109863l0 73.03601c0 0.39135742 -0.31726074 0.7086792 -0.70861816 0.7086792l-2.8347168 0c-0.39135742 0 -0.70861816 -0.31732178 -0.70861816 -0.7086792z" fill-rule="nonzero"></path><path fill="#000000" fill-opacity="0.0" d="m1011.2275 514.7954l-10.304565 74.56177" fill-rule="nonzero"></path><path stroke="#9fc5e8" stroke-width="16.0" stroke-linejoin="round" stroke-linecap="butt" d="m1011.2275 514.7954l-10.304565 74.56177" fill-rule="nonzero"></path><path fill="#000000" fill-opacity="0.0" d="m1031.2086 514.58l13.059692 77.729126" fill-rule="nonzero"></path><path stroke="#9fc5e8" stroke-width="16.0" stroke-linejoin="round" stroke-linecap="butt" d="m1031.2086 514.58l13.059692 77.729126" fill-rule="nonzero"></path><path fill="#000000" fill-opacity="0.0" d="m1001.2391 416.71002l0 0c0 -11.813477 9.207642 -21.390167 20.565796 -21.390167l0 0c5.4544067 0 10.685364 2.253601 14.542175 6.265045c3.8568115 4.0114136 6.0235596 9.452087 6.0235596 15.125122l0 0c0 11.813446 -9.20752 21.390137 -20.565735 21.390137l0 0c-11.358154 0 -20.565796 -9.576691 -20.565796 -21.390137z" fill-rule="nonzero"></path><path stroke="#9fc5e8" stroke-width="8.0" stroke-linejoin="round" stroke-linecap="butt" d="m1001.2391 416.71002l0 0c0 -11.813477 9.207642 -21.390167 20.565796 -21.390167l0 0c5.4544067 0 10.685364 2.253601 14.542175 6.265045c3.8568115 4.0114136 6.0235596 9.452087 6.0235596 15.125122l0 0c0 11.813446 -9.20752 21.390137 -20.565735 21.390137l0 0c-11.358154 0 -20.565796 -9.576691 -20.565796 -21.390137z" fill-rule="nonzero"></path><path fill="#7acc72" d="m928.2122 473.7909l0 0c0 -6.436035 5.217407 -11.653442 11.653442 -11.653442l46.612427 0l0 0c3.0906372 0 6.0547485 1.2277527 8.240234 3.413208c2.1854248 2.1854553 3.413208 5.149536 3.413208 8.240234l0 57.936584c0 6.436035 -5.2174683 11.653503 -11.653442 11.653503l-46.612427 0c-6.436035 0 -11.653442 -5.2174683 -11.653442 -11.653503z" fill-rule="nonzero"></path><path stroke="#ffffff" stroke-width="8.0" stroke-linejoin="round" stroke-linecap="butt" d="m928.2122 473.7909l0 0c0 -6.436035 5.217407 -11.653442 11.653442 -11.653442l46.612427 0l0 0c3.0906372 0 6.0547485 1.2277527 8.240234 3.413208c2.1854248 2.1854553 3.413208 5.149536 3.413208 8.240234l0 57.936584c0 6.436035 -5.2174683 11.653503 -11.653442 11.653503l-46.612427 0c-6.436035 0 -11.653442 -5.2174683 -11.653442 -11.653503z" fill-rule="nonzero"></path><path fill="#ffffff" d="m938.06384 477.30933l0 0c0 -0.39138794 0.31732178 -0.7086792 0.7086792 -0.7086792l2.8346558 0l0 0c0.18792725 0 0.3682251 0.07467651 0.50109863 0.20758057c0.13293457 0.13290405 0.20758057 0.3131714 0.20758057 0.50109863l0 74.554565c0 0.39141846 -0.31726074 0.7086792 -0.7086792 0.7086792l-2.8346558 0c-0.39135742 0 -0.7086792 -0.31726074 -0.7086792 -0.7086792z" fill-rule="nonzero"></path><path fill="#ffffff" d="m983.44727 478.07043l0 0c0 -0.39138794 0.31726074 -0.7086792 0.7086792 -0.7086792l2.8346558 0l0 0c0.18792725 0 0.36816406 0.07467651 0.50109863 0.20755005c0.13287354 0.13290405 0.20758057 0.3131714 0.20758057 0.50112915l0 73.03595c0 0.39141846 -0.31732178 0.7086792 -0.7086792 0.7086792l-2.8346558 0c-0.39141846 0 -0.7086792 -0.31726074 -0.7086792 -0.7086792z" fill-rule="nonzero"></path><path fill="#000000" fill-opacity="0.0" d="m952.3037 535.2801l-10.304626 74.56177" fill-rule="nonzero"></path><path stroke="#7acc72" stroke-width="16.0" stroke-linejoin="round" stroke-linecap="butt" d="m952.3037 535.2801l-10.304626 74.56177" fill-rule="nonzero"></path><path fill="#000000" fill-opacity="0.0" d="m972.28485 535.0647l13.059692 77.729126" fill-rule="nonzero"></path><path stroke="#7acc72" stroke-width="16.0" stroke-linejoin="round" stroke-linecap="butt" d="m972.28485 535.0647l13.059692 77.729126" fill-rule="nonzero"></path><path fill="#000000" fill-opacity="0.0" d="m942.31525 437.19467l0 0c0 -11.813446 9.207642 -21.390137 20.565796 -21.390137l0 0c5.4544067 0 10.685364 2.253601 14.542236 6.2650146c3.8568115 4.011444 6.0235596 9.452118 6.0235596 15.125122l0 0c0 11.813477 -9.207642 21.390167 -20.565796 21.390167l0 0c-11.358154 0 -20.565796 -9.576691 -20.565796 -21.390167z" fill-rule="nonzero"></path><path stroke="#7acc72" stroke-width="8.0" stroke-linejoin="round" stroke-linecap="butt" d="m942.31525 437.19467l0 0c0 -11.813446 9.207642 -21.390137 20.565796 -21.390137l0 0c5.4544067 0 10.685364 2.253601 14.542236 6.2650146c3.8568115 4.011444 6.0235596 9.452118 6.0235596 15.125122l0 0c0 11.813477 -9.207642 21.390167 -20.565796 21.390167l0 0c-11.358154 0 -20.565796 -9.576691 -20.565796 -21.390167z" fill-rule="nonzero"></path><path fill="#7acc72" d="m875.26324 500.51862l0 0c0 -6.436035 5.2174683 -11.653473 11.653503 -11.653473l46.612366 0l0 0c3.0906982 0 6.0548096 1.2277832 8.240234 3.4132385c2.1854858 2.1854248 3.413269 5.149536 3.413269 8.240234l0 57.936584c0 6.436035 -5.2174683 11.653442 -11.653503 11.653442l-46.612366 0c-6.436035 0 -11.653503 -5.217407 -11.653503 -11.653442z" fill-rule="nonzero"></path><path stroke="#ffffff" stroke-width="8.0" stroke-linejoin="round" stroke-linecap="butt" d="m875.26324 500.51862l0 0c0 -6.436035 5.2174683 -11.653473 11.653503 -11.653473l46.612366 0l0 0c3.0906982 0 6.0548096 1.2277832 8.240234 3.4132385c2.1854858 2.1854248 3.413269 5.149536 3.413269 8.240234l0 57.936584c0 6.436035 -5.2174683 11.653442 -11.653503 11.653442l-46.612366 0c-6.436035 0 -11.653503 -5.217407 -11.653503 -11.653442z" fill-rule="nonzero"></path><path fill="#ffffff" d="m885.1149 504.03705l0 0c0 -0.39138794 0.31732178 -0.7086792 0.7086792 -0.7086792l2.8346558 0l0 0c0.18792725 0 0.3682251 0.07467651 0.50109863 0.20758057c0.13293457 0.13290405 0.20758057 0.31314087 0.20758057 0.50109863l0 74.554565c0 0.39135742 -0.31732178 0.7086792 -0.7086792 0.7086792l-2.8346558 0c-0.39135742 0 -0.7086792 -0.31732178 -0.7086792 -0.7086792z" fill-rule="nonzero"></path><path fill="#ffffff" d="m930.49835 504.79816l0 0c0 -0.39141846 0.31726074 -0.7086792 0.7086792 -0.7086792l2.8346558 0l0 0c0.18792725 0 0.36816406 0.074645996 0.50109863 0.20755005c0.13287354 0.13290405 0.20758057 0.3131714 0.20758057 0.50112915l0 73.03595c0 0.39141846 -0.31732178 0.7086792 -0.7086792 0.7086792l-2.8346558 0c-0.39141846 0 -0.7086792 -0.31726074 -0.7086792 -0.7086792z" fill-rule="nonzero"></path><path fill="#000000" fill-opacity="0.0" d="m899.35474 562.00775l-10.304565 74.56183" fill-rule="nonzero"></path><path stroke="#7acc72" stroke-width="16.0" stroke-linejoin="round" stroke-linecap="butt" d="m899.35474 562.00775l-10.304565 74.56183" fill-rule="nonzero"></path><path fill="#000000" fill-opacity="0.0" d="m919.33594 561.7924l13.059692 77.729126" fill-rule="nonzero"></path><path stroke="#7acc72" stroke-width="16.0" stroke-linejoin="round" stroke-linecap="butt" d="m919.33594 561.7924l13.059692 77.729126" fill-rule="nonzero"></path><path fill="#000000" fill-opacity="0.0" d="m889.36633 463.9224l0 0c0 -11.813446 9.207642 -21.390137 20.565796 -21.390137l0 0c5.4544067 0 10.685364 2.253601 14.542175 6.2650146c3.8568726 4.011444 6.0236206 9.452118 6.0236206 15.125122l0 0c0 11.813446 -9.207642 21.390137 -20.565796 21.390137l0 0c-11.358154 0 -20.565796 -9.576691 -20.565796 -21.390137z" fill-rule="nonzero"></path><path stroke="#7acc72" stroke-width="8.0" stroke-linejoin="round" stroke-linecap="butt" d="m889.36633 463.9224l0 0c0 -11.813446 9.207642 -21.390137 20.565796 -21.390137l0 0c5.4544067 0 10.685364 2.253601 14.542175 6.2650146c3.8568726 4.011444 6.0236206 9.452118 6.0236206 15.125122l0 0c0 11.813446 -9.207642 21.390137 -20.565796 21.390137l0 0c-11.358154 0 -20.565796 -9.576691 -20.565796 -21.390137z" fill-rule="nonzero"></path><path fill="#7acc72" d="m820.8269 522.7604l0 0c0 -6.4368286 5.2181396 -11.654968 11.655029 -11.654968l46.618652 0l0 0c3.0910645 0 6.055603 1.2279053 8.241333 3.4136353c2.18573 2.185791 3.4136353 5.1502686 3.4136353 8.241333l0 57.940857c0 6.4368896 -5.2180786 11.655029 -11.654968 11.655029l-46.618652 0c-6.4368896 0 -11.655029 -5.2181396 -11.655029 -11.655029z" fill-rule="nonzero"></path><path stroke="#ffffff" stroke-width="8.0" stroke-linejoin="round" stroke-linecap="butt" d="m820.8269 522.7604l0 0c0 -6.4368286 5.2181396 -11.654968 11.655029 -11.654968l46.618652 0l0 0c3.0910645 0 6.055603 1.2279053 8.241333 3.4136353c2.18573 2.185791 3.4136353 5.1502686 3.4136353 8.241333l0 57.940857c0 6.4368896 -5.2180786 11.655029 -11.654968 11.655029l-46.618652 0c-6.4368896 0 -11.655029 -5.2181396 -11.655029 -11.655029z" fill-rule="nonzero"></path><path fill="#ffffff" d="m830.6786 526.2773l0 0c0 -0.39135742 0.31726074 -0.7086792 0.7086792 -0.7086792l2.8346558 0l0 0c0.18792725 0 0.36816406 0.07470703 0.50109863 0.20758057c0.13287354 0.13287354 0.20758057 0.3131714 0.20758057 0.50109863l0 74.554565c0 0.39141846 -0.31732178 0.7086792 -0.7086792 0.7086792l-2.8346558 0c-0.39141846 0 -0.7086792 -0.31726074 -0.7086792 -0.7086792z" fill-rule="nonzero"></path><path fill="#ffffff" d="m876.062 527.0384l0 0c0 -0.39141846 0.31726074 -0.7086792 0.7086792 -0.7086792l2.8345947 0l0 0c0.18798828 0 0.3682251 0.074645996 0.50115967 0.20758057c0.13287354 0.13287354 0.20758057 0.3131714 0.20758057 0.50109863l0 73.03595c0 0.39141846 -0.31732178 0.7086792 -0.70874023 0.7086792l-2.8345947 0c-0.39141846 0 -0.7086792 -0.31726074 -0.7086792 -0.7086792z" fill-rule="nonzero"></path><path fill="#000000" fill-opacity="0.0" d="m844.9184 584.24805l-10.304565 74.56177" fill-rule="nonzero"></path><path stroke="#7acc72" stroke-width="16.0" stroke-linejoin="round" stroke-linecap="butt" d="m844.9184 584.24805l-10.304565 74.56177" fill-rule="nonzero"></path><path fill="#000000" fill-opacity="0.0" d="m864.8996 584.03265l13.059692 77.729126" fill-rule="nonzero"></path><path stroke="#7acc72" stroke-width="16.0" stroke-linejoin="round" stroke-linecap="butt" d="m864.8996 584.03265l13.059692 77.729126" fill-rule="nonzero"></path><path fill="#000000" fill-opacity="0.0" d="m834.93 486.16208l0 0c0 -11.813141 9.207581 -21.389587 20.565735 -21.389587l0 0c5.4543457 0 10.685364 2.25354 14.542175 6.264862c3.8568115 4.011322 6.0235596 9.451874 6.0235596 15.124725l0 0c0 11.813141 -9.207581 21.389618 -20.565735 21.389618l0 0c-11.358154 0 -20.565735 -9.576477 -20.565735 -21.389618z" fill-rule="nonzero"></path><path stroke="#7acc72" stroke-width="8.0" stroke-linejoin="round" stroke-linecap="butt" d="m834.93 486.16208l0 0c0 -11.813141 9.207581 -21.389587 20.565735 -21.389587l0 0c5.4543457 0 10.685364 2.25354 14.542175 6.264862c3.8568115 4.011322 6.0235596 9.451874 6.0235596 15.124725l0 0c0 11.813141 -9.207581 21.389618 -20.565735 21.389618l0 0c-11.358154 0 -20.565735 -9.576477 -20.565735 -21.389618z" fill-rule="nonzero"></path></g></svg>

